#!OML:ASF \\sashay\E\basketball\basketball\Project 1\Capture day 1\Session 1\Subject.ASF
:FULLY-SPECIFIED
:DEGREES
292
root -33.2525 14.5569 0.602805 -182.103 58.5974 167.71
lowerback 15.7174 5.15495 -11.6078
upperback 6.77074 5.92105 -6.14488
thorax -1.86033 3.24109 -1.08879
lowerneck 10.2893 -23.5373 -14.3296
upperneck -43.7013 -23.8588 39.726
head -6.79439 -13.6185 17.6798
rclavicle -1.37161e-013 6.59965e-014
rhumerus -29.0481 47.4277 -115.242
rradius 75.0482
rwrist -10.7058
rhand -20.7367 24.436
rfingers 7.12502
rthumb 5.62857 -5.46926
lclavicle -1.37161e-013 6.59965e-014
lhumerus -33.8146 -23.7698 92.8616
lradius 97.9945
lwrist 39.2095
lhand -35.4412 49.5767
lfingers 7.12502
lthumb -8.57055 79.3828
rfemur -23.0263 -22.5139 19.9439
rtibia 79.6229
rfoot -9.12642 -9.77875
rtoes -10.6437
lfemur -30.6444 2.3229 -22.1287
ltibia 58.0692
lfoot -28.7088 -11.3451
ltoes -20.2201
293
root -33.1904 14.5544 0.646953 -182.088 58.992 167.782
lowerback 15.7511 5.27563 -11.7655
upperback 6.64064 6.03512 -6.33482
thorax -2.0158 3.30773 -1.242
lowerneck 9.89564 -23.773 -14.0529
upperneck -44.0557 -23.9965 39.6151
head -6.87834 -13.6351 17.5614
rclavicle 1.19271e-015 1.04163e-013
rhumerus -29.4167 46.9152 -115.584
rradius 75.2631
rwrist -10.6399
rhand -20.5552 24.4617
rfingers 7.12502
rthumb 5.8038 -5.43879
lclavicle 1.19271e-015 1.04163e-013
lhumerus -34.4433 -24.86 93.1123
lradius 98.2785
lwrist 41.1438
lhand -38.3981 44.7111
lfingers 7.12502
lthumb -11.4232 74.3799
rfemur -23.132 -23.2374 19.8731
rtibia 80.0323
rfoot -8.987 -9.04821
rtoes -10.552
lfemur -30.3742 2.83946 -21.7136
ltibia 57.9674
lfoot -28.8088 -11.4762
ltoes -20.8374
294
root -33.1272 14.5579 0.693004 -182.168 59.2691 167.761
lowerback 15.8372 5.34181 -11.9128
upperback 6.51612 6.08006 -6.60911
thorax -2.17677 3.3468 -1.48277
lowerneck 9.4847 -24.0678 -13.3818
upperneck -44.4806 -24.1356 39.3572
head -7.09497 -13.6709 17.386
rclavicle 1.04163e-013 5.56597e-015
rhumerus -29.8119 46.5073 -116.035
rradius 75.7735
rwrist -10.6392
rhand -20.4578 24.1602
rfingers 7.12502
rthumb 5.89788 -5.73767
lclavicle 1.04163e-013 5.56597e-015
lhumerus -34.2431 -24.5056 92.1825
lradius 98.6861
lwrist 37.8716
lhand -33.9462 52.0113
lfingers 7.12502
lthumb -7.12759 81.8713
rfemur -23.1772 -24.1417 19.6683
rtibia 80.4304
rfoot -9.06354 -8.24092
rtoes -10.1173
lfemur -30.0557 3.3162 -21.3373
ltibia 57.8324
lfoot -28.8891 -11.6278
ltoes -22.1115
295
root -33.066 14.5572 0.737785 -182.315 59.6638 167.57
lowerback 15.7679 5.42449 -12.1599
upperback 6.32956 6.14547 -6.92622
thorax -2.32736 3.39443 -1.70962
lowerneck 9.35007 -24.3051 -12.7657
upperneck -45.0791 -24.1861 39.1962
head -7.41506 -13.6807 17.3746
rclavicle 9.78021e-014 4.13472e-014
rhumerus -30.2822 46.2319 -116.57
rradius 76.3252
rwrist -10.8461
rhand -20.6882 24.2382
rfingers 7.12502
rthumb 5.67537 -5.6658
lclavicle 9.78021e-014 4.13472e-014
lhumerus -35.0797 -25.8853 92.6061
lradius 99.9144
lwrist 40.905
lhand -41.7907 57.1576
lfingers 7.12502
lthumb -14.6935 86.617
rfemur -23.3928 -24.9375 19.3294
rtibia 80.8997
rfoot -9.17767 -7.08871
rtoes -8.76782
lfemur -29.7496 3.70966 -21.0229
ltibia 57.6888
lfoot -28.91 -11.9491
ltoes -22.3018
296
root -33.0037 14.5534 0.787812 -182.504 60.2237 167.258
lowerback 15.6019 5.57794 -12.606
upperback 6.05645 6.26445 -7.15876
thorax -2.55142 3.46198 -1.74988
lowerneck 9.33374 -24.4628 -12.5097
upperneck -45.4276 -24.3096 39.0142
head -7.59042 -13.7093 17.3328
rclavicle 3.97569e-014 4.77083e-015
rhumerus -30.8062 45.9107 -116.982
rradius 77.1376
rwrist -10.9246
rhand -20.7391 24.1869
rfingers 7.12502
rthumb 5.62627 -5.71845
lclavicle 3.97569e-014 4.77083e-015
lhumerus -35.1015 -25.5011 91.9408
lradius 100.455
lwrist 37.7284
lhand -34.2347 52.5523
lfingers 7.12502
lthumb -7.40614 82.4027
rfemur -23.7059 -25.3921 18.9523
rtibia 81.3606
rfoot -10.0288 -6.77594
rtoes -9.59883
lfemur -29.453 4.03488 -20.6666
ltibia 57.4856
lfoot -28.6943 -12.7349
ltoes -20.0919
297
root -32.9411 14.5493 0.835321 -182.677 60.7795 167.009
lowerback 15.4697 5.66673 -12.9907
upperback 5.75225 6.28798 -7.32612
thorax -2.82661 3.48167 -1.74116
lowerneck 9.44256 -24.5142 -12.6215
upperneck -45.7946 -24.3621 38.927
head -7.72157 -13.6795 17.3952
rclavicle 1.82882e-014 2.8625e-014
rhumerus -31.4905 45.6428 -117.44
rradius 78.2903
rwrist -10.7657
rhand -20.7434 24.0239
rfingers 7.12502
rthumb 5.62211 -5.88148
lclavicle 1.82882e-014 2.8625e-014
lhumerus -35.6207 -25.492 91.9653
lradius 101.694
lwrist 37.3128
lhand -33.2863 52.4635
lfingers 7.12502
lthumb -6.4906 82.344
rfemur -23.9678 -25.8264 18.5231
rtibia 81.8005
rfoot -10.8173 -6.36354
rtoes -9.27097
lfemur -29.2312 4.26102 -20.2532
ltibia 57.1624
lfoot -27.5407 -14.574
ltoes -13.0679
